<svg width="1443" height="296" viewBox="0 0 1443 296" fill="none" xmlns="http://www.w3.org/2000/svg">
<path opacity="0.4" fill-rule="evenodd" clip-rule="evenodd" d="M245.945 109.596C223.251 33.1756 58.0274 3.19798 6.8183 88.907C-17.0284 128.819 25.1285 188.617 79.7392 222.38C63.4881 176.749 54.1062 124.382 104.544 104.967C148.174 88.1717 207.763 125.508 184.767 169.934C167.16 203.949 145.027 192.517 131.307 185.431C122.618 180.942 117.303 178.197 118.653 189.848C121.438 213.896 130.91 234.14 142.61 246.817C162.365 249.714 181.227 247.358 196.907 237.786C197.95 237.149 198.978 236.499 199.988 235.811C206.17 231.6 229.71 213.784 242.73 178.789L242.842 178.488C243.282 177.307 243.72 176.131 244.129 174.938C246.668 167.527 254.856 139.6 245.945 109.596Z" fill="#46BE1C"/>
<path opacity="0.4" fill-rule="evenodd" clip-rule="evenodd" d="M223.251 139.841C225.844 76.6363 93.1952 30.2029 24.7352 90.4782C-15.9733 126.32 20.2977 190.936 78.3776 219.444C62.7539 174.491 54.7579 123.85 104.167 104.83C147.797 88.0349 207.386 125.371 184.39 169.798C166.784 203.812 144.65 192.38 130.931 185.294C122.241 180.805 116.927 178.061 118.276 189.712C120.229 206.576 125.471 221.569 132.463 233.394C143.618 233.34 154.651 230.567 164.563 225.291C174.824 219.83 187.723 211.213 198.881 198.411C212.527 182.754 222.061 168.825 223.251 139.841Z" fill="#FFE600"/>
<path opacity="0.6" fill-rule="evenodd" clip-rule="evenodd" d="M224.65 86.6051C182.865 39.283 57.6466 55.9044 27.8024 142.302C14.0921 181.993 43.5348 229.933 88.2503 245.143C68.2793 195.765 45.2899 127.818 104.366 105.077C147.996 88.2817 207.585 125.618 184.589 170.044C166.983 204.059 144.849 192.627 131.13 185.541C122.44 181.052 117.126 178.307 118.475 189.958C121.198 213.473 131.2 233.619 142.926 246.457C160.539 241.488 178.712 231.063 196.375 213.611C201.239 208.805 205.551 203.415 209.137 197.585C215.679 186.945 226.206 167.523 231.179 145.796C231.615 143.891 232.023 141.996 232.377 140.075C234.067 130.888 238.079 101.812 224.65 86.6051Z" fill="#FFE600"/>
<path opacity="0.6" fill-rule="evenodd" clip-rule="evenodd" d="M254.248 156.944C230.412 96.6213 104.659 63.1443 70.1513 127.553C65.9254 135.441 65.0216 144.886 66.7611 155.076C68.4546 133.416 78.6409 115.057 104.256 105.196C147.886 88.401 207.476 125.737 184.479 170.164C166.873 204.178 144.74 192.746 131.02 185.66C122.33 181.172 117.016 178.427 118.365 190.078C121.84 220.083 130.002 236.346 148.85 252.601C172.98 264.688 198.551 268.479 219.837 257.125C223.268 255.296 226.613 253.244 229.689 250.862C236.559 245.542 249.082 233.122 255.995 209.557C259.203 198.623 260.986 173.995 254.248 156.944Z" fill="#46BE1C"/>
<path d="M331.471 211V68.4512H378.951V211H331.471ZM386.471 211V182.533H409.996V164.486H453.072V211H386.471ZM496.393 96.918H543.98V211H496.393V96.918ZM496.393 52.4453H543.98V82.7383H496.393V52.4453ZM645.309 182.533H676.676V211H626.402L597.828 182.533V125.385H588.375V96.918H597.828V84.5645L645.309 68.4512V182.533ZM652.828 125.385V96.918H678.395V125.385H652.828ZM771.451 211H752.438L723.971 182.533V125.385L752.438 96.918H771.451V211ZM778.971 165.238V145.365H804V125.385H778.971V96.918H819.254L847.721 125.385V165.238H778.971ZM778.971 211V184.359H842.779V196.713L828.6 211H778.971ZM946.686 182.533H987.398V211H927.672L899.205 182.533V96.918L927.672 68.4512H946.686V182.533ZM971.822 131.938H1037.03V211H994.918V160.189H971.822V131.938ZM954.205 96.918V68.4512H1012.11L1037.03 96.918V111.205H989.547V96.918H954.205ZM1089.91 211V68.4512H1136.53V211H1089.91ZM1144.05 96.918V68.4512H1197.33L1225.8 96.918V145.795L1197.33 174.369H1144.05V145.795H1178.53V96.918H1144.05ZM1306.93 106.908H1356.34V211H1306.93V106.908ZM1269.76 68.4512H1393.51V99.4961H1269.76V68.4512Z" fill="url(#paint0_linear_6_510)"/>
<path d="M331.471 211V68.4512H378.951V211H331.471ZM386.471 211V182.533H409.996V164.486H453.072V211H386.471ZM496.393 96.918H543.98V211H496.393V96.918ZM496.393 52.4453H543.98V82.7383H496.393V52.4453ZM645.309 182.533H676.676V211H626.402L597.828 182.533V125.385H588.375V96.918H597.828V84.5645L645.309 68.4512V182.533ZM652.828 125.385V96.918H678.395V125.385H652.828ZM771.451 211H752.438L723.971 182.533V125.385L752.438 96.918H771.451V211ZM778.971 165.238V145.365H804V125.385H778.971V96.918H819.254L847.721 125.385V165.238H778.971ZM778.971 211V184.359H842.779V196.713L828.6 211H778.971ZM946.686 182.533H987.398V211H927.672L899.205 182.533V96.918L927.672 68.4512H946.686V182.533ZM971.822 131.938H1037.03V211H994.918V160.189H971.822V131.938ZM954.205 96.918V68.4512H1012.11L1037.03 96.918V111.205H989.547V96.918H954.205ZM1089.91 211V68.4512H1136.53V211H1089.91ZM1144.05 96.918V68.4512H1197.33L1225.8 96.918V145.795L1197.33 174.369H1144.05V145.795H1178.53V96.918H1144.05ZM1306.93 106.908H1356.34V211H1306.93V106.908ZM1269.76 68.4512H1393.51V99.4961H1269.76V68.4512Z" fill="white"/>
<defs>
<linearGradient id="paint0_linear_6_510" x1="311.5" y1="148" x2="1443" y2="148" gradientUnits="userSpaceOnUse">
<stop stop-color="#FFE27D"/>
<stop offset="0.291667" stop-color="#FFB543"/>
<stop offset="0.734375" stop-color="#61FFD5"/>
<stop offset="0.991094" stop-color="#3FB5FF"/>
</linearGradient>
</defs>
</svg>
