<svg width="29" height="25" viewBox="0 0 29 25" fill="none" xmlns="http://www.w3.org/2000/svg">
<path opacity="0.4" fill-rule="evenodd" clip-rule="evenodd" d="M27.2443 8.00451C24.7304 -0.421687 6.42791 -3.72706 0.755289 5.72334C-1.88629 10.1241 2.78354 16.7174 8.83292 20.4402C7.03279 15.409 5.99365 9.63509 11.5807 7.49433C16.4138 5.64247 23.0147 9.7592 20.4673 14.6577C18.517 18.4082 16.0652 17.1477 14.5454 16.3664C13.5828 15.8715 12.9941 15.5688 13.1436 16.8535C13.4521 19.5049 14.5013 21.7369 15.7972 23.1346C17.3958 23.368 18.9417 23.2923 20.3358 22.8232C21.4942 22.4334 22.5269 21.7299 23.4175 20.893C24.2399 20.1203 25.278 18.9374 26.144 17.2949C26.7808 16.0873 27.2513 14.7877 27.4905 13.4436C27.7382 12.0511 27.8613 10.0726 27.2443 8.00451Z" fill="#46BE1C"/>
<path opacity="0.4" fill-rule="evenodd" clip-rule="evenodd" d="M24.7303 11.34C25.0176 4.37092 10.3235 -0.748892 2.73997 5.89715C-1.76944 9.84908 2.24837 16.9737 8.68206 20.117C6.95139 15.1605 6.06572 9.57685 11.5389 7.47973C16.372 5.62787 22.9729 9.7446 20.4255 14.6431C18.4752 18.3936 16.0234 17.1331 14.5036 16.3518C13.541 15.8569 12.9523 15.5542 13.1018 16.8389C13.3008 18.5492 13.808 20.085 14.4909 21.3349C17.3446 21.185 20.1147 19.9861 22.0307 17.7979C23.5424 16.0716 24.5985 14.5358 24.7303 11.34Z" fill="#FFE600"/>
<path opacity="0.6" fill-rule="evenodd" clip-rule="evenodd" d="M24.8854 5.46965C20.2566 0.251845 6.38571 2.08455 3.07975 11.6109C1.56102 15.9872 4.82238 21.2731 9.77556 22.9502C7.56335 17.5057 5.01719 10.0143 11.561 7.50695C16.3941 5.65509 22.995 9.77182 20.4476 14.6704C18.4973 18.4208 16.0455 17.1603 14.5258 16.379C13.5632 15.8841 12.9745 15.5814 13.1239 16.8661C13.4256 19.4586 14.5333 21.6797 15.8321 23.0953C16.4982 22.9082 17.1716 22.6511 17.8475 22.3168C21.4233 20.5488 23.5605 17.7986 24.9737 14.0682C25.3764 13.0053 25.8327 11.1276 25.9177 9.99412C26.0226 8.59602 25.9346 6.65241 24.8854 5.46965Z" fill="#FFE600"/>
<path opacity="0.6" fill-rule="evenodd" clip-rule="evenodd" d="M28.1641 13.2266C25.5236 6.57529 11.5936 2.88407 7.77098 9.9859C7.30287 10.8556 7.20275 11.897 7.39543 13.0205C7.58295 10.6322 8.71131 8.60769 11.5489 7.52041C16.382 5.66855 22.9829 9.78528 20.4356 14.6838C18.4852 18.4343 16.0334 17.1738 14.5137 16.3925C13.5511 15.8976 12.9624 15.5949 13.1119 16.8796C13.4969 20.1886 14.4012 21.9818 16.4898 23.7743C17.4162 24.2362 18.3618 24.5881 19.3002 24.7987C23.0942 25.6503 27.0719 23.0155 28.2686 19.3159C28.2991 19.2216 28.3288 19.1255 28.3577 19.0278C28.713 17.8222 28.9105 15.1067 28.1641 13.2266Z" fill="#46BE1C"/>
</svg>
