<?xml version="1.0" encoding="utf-8"?>
<!-- Svg Vector Icons : http://www.onlinewebfonts.com/icon -->
<!DOCTYPE svg PUBLIC "-//W3C//DTD SVG 1.1//EN" "http://www.w3.org/Graphics/SVG/1.1/DTD/svg11.dtd">
<svg version="1.1" xmlns="http://www.w3.org/2000/svg" xmlns:xlink="http://www.w3.org/1999/xlink" x="0px" y="0px" viewBox="0 0 1000 1000" enable-background="new 0 0 1000 1000" xml:space="preserve">
<metadata> Svg Vector Icons : http://www.onlinewebfonts.com/icon </metadata>
<g><path d="M231.3,155.4c59.1,6.9,119.2,9.1,176.8,22.3c34.4,7.9,70.3,27.3,95.9,51.7C619.2,339,730.9,452.2,843.7,564.1c45.2,44.8,45.5,77.8,1,122.1c-92,91.5-184.1,182.8-276.4,273.9c-40.1,39.5-75.8,39.8-115.4,0.8C335.5,845.3,218.9,728.8,101.1,613.6C58.1,571.5,51.4,516.5,46,462.4c-6.4-65-8-130.6-7.8-195.9c0.2-71.8,33.9-104.8,105.1-107.9c29.2-1.3,58.4-0.2,87.6-0.2C231.1,157.4,231.2,156.4,231.3,155.4z M186.7,376.4c39.4,0.5,71.9-31.4,71.7-70.3c-0.2-38.1-30.1-68.8-68.4-70.2c-38.8-1.5-72.5,29.9-73.8,68.6C115,342.7,147.5,375.8,186.7,376.4z"/><path d="M890.6,569.1c-64.1-66.3-128.7-133.8-194.1-200.5c-45.8-46.7-96.6-89.2-138.3-139.3c-61.8-74.3-142.6-98.3-232.8-101.7c-66.3-2.5-132.8-0.5-198.6-0.5c-3.5-70.7,28.5-117.5,86.1-117c95.4,0.8,191.2,7.2,285.9,18.9c31.6,3.9,65.4,26,89.4,48.9c109.2,103.9,213.4,213.2,323.2,316.5C985.7,464.2,977.1,503.8,890.6,569.1z"/></g>
</svg>